<svg xmlns="http://www.w3.org/2000/svg" viewBox="0 0 29.968 29.228">
  <defs>
    <style>
      .cls-1 {
        fill: #191717;
      }
    </style>
  </defs>
  <path id="social-github" class="cls-1" d="M14.983,12.651a14.985,14.985,0,0,0-4.735,29.2c.749.137,1.023-.325,1.023-.722,0-.356-.012-1.3-.02-2.549C7.082,39.487,6.2,36.573,6.2,36.573a3.966,3.966,0,0,0-1.664-2.191c-1.36-.93.1-.912.1-.912a3.147,3.147,0,0,1,2.3,1.545A3.191,3.191,0,0,0,11.3,36.26a3.2,3.2,0,0,1,.951-2c-3.328-.378-6.825-1.664-6.825-7.406A5.793,5.793,0,0,1,6.966,22.83a5.391,5.391,0,0,1,.147-3.966s1.258-.4,4.121,1.536a14.209,14.209,0,0,1,7.5,0c2.861-1.939,4.116-1.536,4.116-1.536A5.376,5.376,0,0,1,23,22.83a5.785,5.785,0,0,1,1.54,4.021c0,5.756-3.5,7.023-6.841,7.394a3.575,3.575,0,0,1,1.018,2.775c0,2-.019,3.619-.019,4.111,0,.4.27.867,1.03.72a14.986,14.986,0,0,0-4.747-29.2Z" transform="translate(0 -12.651)"/>
</svg>
