<svg xmlns="http://www.w3.org/2000/svg" viewBox="0 0 26.615 31.244">
  <defs>
    <style>
      .cls-1 {
        fill: #ffbd14;
      }

      .cls-2 {
        fill: #ef9e0d;
      }

      .cls-3 {
        fill: #121214;
      }

      .cls-4 {
        fill: #fff;
      }

      .cls-5 {
        fill: #161616;
      }

      .cls-6 {
        fill: #181818;
      }

      .cls-7 {
        fill: #fab718;
      }

      .cls-8 {
        fill: #8c2b01;
      }

      .cls-9 {
        fill: #f9f9f9;
      }

      .cls-10 {
        fill: #e32b10;
      }
    </style>
  </defs>
  <g id="social-qq" transform="translate(-133.206 -49.344)">
    <path id="路径_15" data-name="路径 15" class="cls-1" d="M221.76,846.77c0,1.288,2.248,2.333,5.022,2.333s5.022-1.044,5.022-2.333-2.248-2.333-5.022-2.333S221.76,845.482,221.76,846.77Z" transform="translate(-85.594 -768.515)"/>
    <path id="路径_16" data-name="路径 16" class="cls-2" d="M226.931,899.145c-2.773,0-5.022-1.044-5.022-2.333a1.16,1.16,0,0,1,.019-.172,1.2,1.2,0,0,0-.168.588c0,1.288,2.248,2.333,5.022,2.333,2.648,0,4.813-.953,5-2.161-.561,1-2.518,1.744-4.853,1.744Z" transform="translate(-85.594 -818.973)"/>
    <path id="路径_17" data-name="路径 17" class="cls-1" d="M539.989,846.77c0,1.288,2.248,2.333,5.022,2.333s5.022-1.044,5.022-2.333-2.248-2.333-5.022-2.333S539.989,845.482,539.989,846.77Z" transform="translate(-393.185 -768.515)"/>
    <path id="路径_18" data-name="路径 18" class="cls-2" d="M545.44,899.145c2.773,0,5.022-1.044,5.022-2.333a1.163,1.163,0,0,0-.019-.172,1.2,1.2,0,0,1,.168.588c0,1.288-2.248,2.333-5.022,2.333-2.648,0-4.813-.953-5-2.161C541.147,898.4,543.1,899.145,545.44,899.145Z" transform="translate(-393.763 -818.973)"/>
    <path id="路径_19" data-name="路径 19" class="cls-3" d="M157.677,64.81l-1.129-3.625c0-11.8-9.541-11.841-10.035-11.841-.513,0-10.034.039-10.034,11.841l-1.13,3.625s-3.833,4.814-1.248,9c.29.2.312.936,1.872-2.363a10.833,10.833,0,0,0,10.487,7.44v0h.106v0a10.834,10.834,0,0,0,10.487-7.44c1.56,3.3,1.592,2.63,1.872,2.363C161.51,69.623,157.677,64.81,157.677,64.81Z"/>
    <path id="路径_20" data-name="路径 20" class="cls-4" d="M544.448,199.29c0,1.575.908,2.853,2.028,2.853s2.028-1.277,2.028-2.853-.908-2.853-2.028-2.853S544.448,197.715,544.448,199.29Z" transform="translate(-397.495 -142.177)"/>
    <path id="路径_21" data-name="路径 21" class="cls-4" d="M388.48,199.29c0,1.575.908,2.853,2.028,2.853s2.028-1.277,2.028-2.853-.908-2.853-2.028-2.853S388.48,197.715,388.48,199.29Z" transform="translate(-246.741 -142.177)"/>
    <path id="路径_22" data-name="路径 22" class="cls-5" d="M437.781,239.768c0,.8.462,1.453,1.033,1.453s1.033-.65,1.033-1.453-.462-1.453-1.033-1.453S437.781,238.965,437.781,239.768Z" transform="translate(-294.394 -182.654)"/>
    <path id="路径_23" data-name="路径 23" class="cls-6" d="M560.795,243.118a.214.214,0,0,1-.213-.192,2.737,2.737,0,0,1,.368-1.8.868.868,0,0,1,1.266,0,2.741,2.741,0,0,1,.367,1.8.207.207,0,0,1-.235.19.215.215,0,0,1-.191-.235,2.36,2.36,0,0,0-.259-1.468.423.423,0,0,0-.63,0,2.349,2.349,0,0,0-.26,1.468.214.214,0,0,1-.191.235h-.022Z" transform="translate(-413.072 -185.108)"/>
    <path id="路径_24" data-name="路径 24" class="cls-4" d="M468.651,256.85c0,.246.142.445.317.445s.317-.2.317-.445-.142-.445-.317-.445S468.651,256.6,468.651,256.85Z" transform="translate(-324.232 -200.139)"/>
    <path id="路径_25" data-name="路径 25" class="cls-7" d="M351.367,377.452a14.538,14.538,0,0,0-10.727,0c-.787.267-1.1.476-1.1.728s1.991,1.739,4.115,2.644c1,.5,1.293.936,2.348.936s1.349-.431,2.348-.936c2.124-.906,4.115-2.392,4.115-2.644S352.155,377.72,351.367,377.452Z" transform="translate(-199.438 -316.149)"/>
    <path id="路径_26" data-name="路径 26" class="cls-8" d="M376.448,431.1a9.74,9.74,0,0,0,5.1,1.545A10.692,10.692,0,0,0,386.8,431.1s-1.753,1.159-3.1,1.961-1.53,1.025-2.214,1.025-1.56-.832-1.954-1.025-1.478-.995-3.083-1.961Z" transform="translate(-235.111 -368.999)"/>
    <path id="路径_27" data-name="路径 27" class="cls-9" d="M289.246,475.776a14.542,14.542,0,0,1-16.446,0s-3.283,14.79,8.223,14.79S289.246,475.776,289.246,475.776Z" transform="translate(-134.509 -412.177)"/>
    <path id="路径_28" data-name="路径 28" class="cls-10" d="M218.531,403.562s-2.748,4.933-10.036,4.933-10.036-4.933-10.036-4.933a16.605,16.605,0,0,0-1.129,3.625,13.913,13.913,0,0,0,3.959,3.052c-.1,1.06-.23,2.691-.215,3.522.022,1.293.812,1.382,2.646,1.56s1.455-.312,1.455-1.137v-2.6a12.85,12.85,0,0,0,3.32.242,14.192,14.192,0,0,0,11.165-4.635,16.583,16.583,0,0,0-1.129-3.626Z" transform="translate(-61.981 -342.377)"/>
  </g>
</svg>
