<svg xmlns="http://www.w3.org/2000/svg" viewBox="0 0 30.179 24.781">
  <defs>
    <style>
      .cls-1 {
        fill: #46af35;
      }
    </style>
  </defs>
  <g id="social-wechat" transform="translate(0.001 -93.376)">
    <path id="路径_29" data-name="路径 29" class="cls-1" d="M20.989,101.006c.153,0,.3,0,.453.01-.794-4.328-5.264-7.639-10.659-7.639C4.827,93.376,0,97.414,0,102.4a8.6,8.6,0,0,0,4.233,7.165l.1.063L3.29,112.886l3.9-1.986.184.053a12.712,12.712,0,0,0,4.136.438,6.989,6.989,0,0,1-.343-2.152c0-4.547,4.4-8.234,9.824-8.234Zm-6.452-3.182a1.467,1.467,0,1,1-1.514,1.466A1.49,1.49,0,0,1,14.537,97.824Zm-7.506,2.932a1.467,1.467,0,1,1,1.516-1.467A1.491,1.491,0,0,1,7.031,100.755Z"/>
    <path id="路径_30" data-name="路径 30" class="cls-1" d="M405.76,382.51c0,4.209,4.081,7.621,9.112,7.621a10.71,10.71,0,0,0,3.037-.435l3.292,1.679-.88-2.758.083-.053a7.262,7.262,0,0,0,3.576-6.054c0-4.207-4.079-7.619-9.109-7.619S405.76,378.3,405.76,382.51Zm11-2.624a1.279,1.279,0,1,1,1.278,1.241A1.258,1.258,0,0,1,416.763,379.886Zm-6.341,0a1.28,1.28,0,1,1,1.28,1.241A1.259,1.259,0,0,1,410.422,379.886Z" transform="translate(-393.802 -273.218)"/>
  </g>
</svg>
